0
SECTION
2
HEADER
9
$ANGDIR
70
0
9
$CHAMFERA
40
10
9
$CHAMFERB
40
10
9
$CLAYER
8
Layer_1
9
$EXTMAX
10
320
20
280
9
$EXTMIN
10
40
20
195
9
$LIMMAX
10
420
20
297
9
$LIMMIN
10
0
20
0
9
$LTSCALE
40
10
9
$PLINEGEN
70
0
9
$TEXTSIZE
40
20
9
$GRIDUNIT
10
10
20
10
9
$SNAPUNIT
10
1
20
1
0
ENDSEC
0
SECTION
2
TABLES
0
TABLE
2
STYLE
70
1
0
STYLE
2
STANDARD
70
0
40
0
41
1
50
0
71
0
42
0.20000000000000001
3
txt
4

0
ENDTAB
0
TABLE
2
LTYPE
70
14
0
LTYPE
2
CONTINUOUS
70
0
3
Solid line
72
65
73
0
40
0
0
LTYPE
2
DOT
70
0
3
............................................
72
65
73
2
40
0.25
49
0
49
-0.25
0
LTYPE
2
HIDDEN
70
0
3
_ _ _ _ _ _ _ _ _ _ _ _ _ _ _ _ _ _ _ _ _ _ 
72
65
73
2
40
0.375
49
0.25
49
-0.125
0
LTYPE
2
TSLONGDASH
70
0
3
__ __ __ __ __ __ __ __ __ __ __ __ __ __ _ 
72
65
73
2
40
1.28
49
1
49
-0.28000000000000003
0
LTYPE
2
TSDASHDOT
70
0
3
______ . ______ . ______ . ______ . ______ .
72
65
73
4
40
1.28
49
1
49
-0.14000000000000001
49
0
49
-0.14000000000000001
0
LTYPE
2
TSCENTER
70
0
3
______ _ ______ _ ______ _ ______ _ ______ _
72
65
73
4
40
2
49
1.5
49
-0.17999999999999999
49
0.14000000000000001
49
-0.17999999999999999
0
LTYPE
2
TSPHANTOM
70
0
3
_____ _ _ _____ _ _ _____ _ _ _____ _ _ ____
72
65
73
6
40
2.5
49
1.6299999999999999
49
-0.19
49
0.14999999999999999
49
-0.19
49
0.14999999999999999
49
-0.19
0
LTYPE
2
DASHED
70
0
3
__ __ __ __ __ __ __ __ __ __ __ __ __ __ __
72
65
73
2
40
0.75
49
0.5
49
-0.25
0
LTYPE
2
CENTER
70
0
3
____ _ ____ _ ____ _ ____ _ ____ _ ____ _ __
72
65
73
4
40
2
49
1.25
49
-0.25
49
0.25
49
-0.25
0
LTYPE
2
PHANTOM
70
0
3
_____ _ _ _____ _ _ _____ _ _ _____ _ _ ____
72
65
73
6
40
2.5
49
1.25
49
-0.25
49
0.25
49
-0.25
49
0.25
49
-0.25
0
LTYPE
2
DASHDOT
70
0
3
__ . __ . __ . __ . __ . __ . __ . __ . __ .
72
65
73
4
40
1
49
0.5
49
-0.25
49
0
49
-0.25
0
LTYPE
2
BORDER
70
0
3
__ __ . __ __ . __ __ . __ __ . __ __ . __ _
72
65
73
6
40
1.75
49
0.5
49
-0.25
49
0.5
49
-0.25
49
0
49
-0.25
0
LTYPE
2
DIVIDE
70
0
3
__ . . __ . . __ . . __ . . __ . . __ . . __
72
65
73
6
40
1.25
49
0.5
49
-0.25
49
0
49
-0.25
49
0
49
-0.25
0
ENDTAB
0
TABLE
2
LAYER
70
3
0
LAYER
2
Layer_1
70
0
62
7
6
CONTINUOUS
0
LAYER
2
Layer_2
70
0
62
7
6
CONTINUOUS
0
LAYER
2
Layer_3
70
0
62
7
6
CONTINUOUS
0
ENDTAB
0
ENDSEC
0
SECTION
2
ENTITIES
0
POLYLINE
8
Layer_1
6
CONTINUOUS
62
1
66
1
10
0
20
0
70
128
40
0
41
0
0
VERTEX
8
Layer_1
6
CONTINUOUS
62
1
10
319
20
195
0
VERTEX
8
Layer_1
6
CONTINUOUS
62
1
10
40
20
195
0
VERTEX
8
Layer_1
6
CONTINUOUS
62
1
10
40
20
280
0
VERTEX
8
Layer_1
6
CONTINUOUS
62
1
10
319
20
280
0
SEQEND
0
POLYLINE
8
Layer_1
6
CONTINUOUS
62
1
66
1
10
0
20
0
70
128
40
0
41
0
0
VERTEX
8
Layer_1
6
CONTINUOUS
62
1
10
293
20
280
0
VERTEX
8
Layer_1
6
CONTINUOUS
62
1
10
320
20
280
0
VERTEX
8
Layer_1
6
CONTINUOUS
62
1
10
320
20
195
0
VERTEX
8
Layer_1
6
CONTINUOUS
62
1
10
293
20
195
0
SEQEND
0
LINE
8
Layer_1
6
CONTINUOUS
62
7
10
140
20
195
11
140
21
198
0
LINE
8
Layer_1
6
CONTINUOUS
62
7
10
280
20
195
11
280
21
198
0
CIRCLE
8
Layer_1
6
CONTINUOUS
62
1
10
160
20
222
40
6.7082039324993694
0
CIRCLE
8
Layer_1
6
CONTINUOUS
62
1
10
160
20
238
40
5
0
POLYLINE
8
Layer_1
6
CONTINUOUS
62
1
66
1
10
0
20
0
70
128
40
0
41
0
0
VERTEX
8
Layer_1
6
CONTINUOUS
62
1
10
67
20
240
0
VERTEX
8
Layer_1
6
CONTINUOUS
62
1
10
66.980007142857147
20
240.52867786568311
0
VERTEX
8
Layer_1
6
CONTINUOUS
62
1
10
66.920142775524781
20
241.0543357939253
0
VERTEX
8
Layer_1
6
CONTINUOUS
62
1
10
66.820748857929786
20
241.57397109790793
0
VERTEX
8
Layer_1
6
CONTINUOUS
62
1
10
66.682393152470823
20
242.08461549351696
0
VERTEX
8
Layer_1
6
CONTINUOUS
62
1
10
66.505865980820502
20
242.58335205490897
0
VERTEX
8
Layer_1
6
CONTINUOUS
62
1
10
66.292175709414437
20
243.06733187670568
0
VERTEX
8
Layer_1
6
CONTINUOUS
62
1
10
66.04254298941521
20
243.53379034763935
0
VERTEX
8
Layer_1
6
CONTINUOUS
62
1
10
65.758393784054007
20
243.98006294268924
0
VERTEX
8
Layer_1
6
CONTINUOUS
62
1
10
65.441351223179396
20
244.40360044350123
0
VERTEX
8
Layer_1
6
CONTINUOUS
62
1
10
65.093226331542169
20
244.80198350014714
0
VERTEX
8
Layer_1
6
CONTINUOUS
62
1
10
64.716007683778443
20
245.17293645104428
0
VERTEX
8
Layer_1
6
CONTINUOUS
62
1
10
64.311850045184329
20
245.51434032209147
0
VERTEX
8
Layer_1
6
CONTINUOUS
62
1
10
63.883062063168843
20
245.8242449307682
0
VERTEX
8
Layer_1
6
CONTINUOUS
62
1
10
63.43209307969456
20
246.10088002605465
0
VERTEX
8
Layer_1
6
CONTINUOUS
62
1
10
62.961519140036472
20
246.34266540053923
0
VERTEX
8
Layer_1
6
CONTINUOUS
62
1
10
62.474028277780505
20
246.54821991695013
0
VERTEX
8
Layer_1
6
CONTINUOUS
62
1
10
61.972405160117383
20
246.71636939754973
0
VERTEX
8
Layer_1
6
CONTINUOUS
62
1
10
61.459515181141668
20
246.84615333132533
0
VERTEX
8
Layer_1
6
CONTINUOUS
62
1
10
60.938288094018986
20
246.93683036066346
0
VERTEX
8
Layer_1
6
CONTINUOUS
62
1
10
60.411701275518432
20
246.98788251616585
0
VERTEX
8
Layer_1
6
CONTINUOUS
62
1
10
59.882762718507308
20
246.99901817541777
0
VERTEX
8
Layer_1
6
CONTINUOUS
62
1
10
59.354493849559248
20
246.97017372880643
0
VERTEX
8
Layer_1
6
CONTINUOUS
62
1
10
58.829912269825641
20
246.9015139428748
0
VERTEX
8
Layer_1
6
CONTINUOUS
62
1
10
58.312014517758882
20
246.79343101913483
0
VERTEX
8
Layer_1
6
CONTINUOUS
62
1
10
57.803758952150886
20
246.64654235371614
0
VERTEX
8
Layer_1
6
CONTINUOUS
62
1
10
57.308048853263159
20
246.4616870106484
0
VERTEX
8
Layer_1
6
CONTINUOUS
62
1
10
56.827715838578932
20
246.23992092892186
0
VERTEX
8
Layer_1
6
CONTINUOUS
62
1
10
56.365503687910653
20
245.98251089070541
0
VERTEX
8
Layer_1
6
CONTINUOUS
62
1
10
55.924052670257758
20
245.69092728517657
0
VERTEX
8
Layer_1
6
CONTINUOUS
62
1
10
55.505884461943538
20
245.3668357092983
0
VERTEX
8
Layer_1
6
CONTINUOUS
62
1
10
55.113387742182411
20
245.01208745352142
0
VERTEX
8
Layer_1
6
CONTINUOUS
62
1
10
54.74880454835931
20
244.62870892676005
0
VERTEX
8
Layer_1
6
CONTINUOUS
62
1
10
54.414217468963024
20
244.21889008104765
0
VERTEX
8
Layer_1
6
CONTINUOUS
62
1
10
54.111537747330765
20
243.78497190199474
0
VERTEX
8
Layer_1
6
CONTINUOUS
62
1
10
53.842494364158142
20
243.32943303650572
0
VERTEX
8
Layer_1
6
CONTINUOUS
62
1
10
53.608624161138003
20
242.85487563414085
0
VERTEX
8
Layer_1
6
CONTINUOUS
62
1
10
53.411263062144343
20
242.36401048300053
0
VERTEX
8
Layer_1
6
CONTINUOUS
62
1
10
53.251538442107943
20
241.85964152503999
0
VERTEX
8
Layer_1
6
CONTINUOUS
62
1
10
53.130362687174681
20
241.344649839266
0
VERTEX
8
Layer_1
6
CONTINUOUS
62
1
10
53.048427982932431
20
240.82197718430811
0
VERTEX
8
Layer_1
6
CONTINUOUS
62
1
10
53.006202360477467
20
240.29460919437295
0
VERTEX
8
Layer_1
6
CONTINUOUS
62
1
10
53
20
240
0
SEQEND
0
POLYLINE
8
Layer_1
6
CONTINUOUS
62
1
66
1
10
0
20
0
70
128
40
0
41
0
0
VERTEX
8
Layer_1
6
CONTINUOUS
62
1
10
53
20
221
0
VERTEX
8
Layer_1
6
CONTINUOUS
62
1
10
52.944646398483265
20
220.47115343314553
0
VERTEX
8
Layer_1
6
CONTINUOUS
62
1
10
52.929189793261735
20
219.93964256229748
0
VERTEX
8
Layer_1
6
CONTINUOUS
62
1
10
52.953717589185139
20
219.40847300396251
0
VERTEX
8
Layer_1
6
CONTINUOUS
62
1
10
53.018091085142466
20
218.88064844457477
0
VERTEX
8
Layer_1
6
CONTINUOUS
62
1
10
53.121946258396541
20
218.35915365508691
0
VERTEX
8
Layer_1
6
CONTINUOUS
62
1
10
53.264695823079563
20
217.84693761252532
0
VERTEX
8
Layer_1
6
CONTINUOUS
62
1
10
53.44553255120907
20
217.34689682395501
0
VERTEX
8
Layer_1
6
CONTINUOUS
62
1
10
53.663433837444529
20
216.86185894715405
0
VERTEX
8
Layer_1
6
CONTINUOUS
62
1
10
53.917167481771507
20
216.39456680062131
0
VERTEX
8
Layer_1
6
CONTINUOUS
62
1
10
54.205298657413145
20
215.94766285333733
0
VERTEX
8
Layer_1
6
CONTINUOUS
62
1
10
54.526198024566447
20
215.52367428198755
0
VERTEX
8
Layer_1
6
CONTINUOUS
62
1
10
54.878050944081409
20
215.12499868014638
0
VERTEX
8
Layer_1
6
CONTINUOUS
62
1
10
55.258867738980918
20
214.75389050023506
0
VERTEX
8
Layer_1
6
CONTINUOUS
62
1
10
55.666494945794057
20
214.41244830492178
0
VERTEX
8
Layer_1
6
CONTINUOUS
62
1
10
56.098627492078165
20
214.10260290005567
0
VERTEX
8
Layer_1
6
CONTINUOUS
62
1
10
56.552821731267564
20
213.82610641624115
0
VERTEX
8
Layer_1
6
CONTINUOUS
62
1
10
57.026509261138649
20
213.58452240079464
0
VERTEX
8
Layer_1
6
CONTINUOUS
62
1
10
57.517011447750221
20
213.37921697611253
0
VERTEX
8
Layer_1
6
CONTINUOUS
62
1
10
58.021554572727915
20
213.21135111444801
0
VERTEX
8
Layer_1
6
CONTINUOUS
62
1
10
58.537285518237418
20
213.08187407278228
0
VERTEX
8
Layer_1
6
CONTINUOUS
62
1
10
59.061287900949893
20
212.9915180249146
0
VERTEX
8
Layer_1
6
CONTINUOUS
62
1
10
59.59059856376475
20
212.94079392112621
0
VERTEX
8
Layer_1
6
CONTINUOUS
62
1
10
60.122224332031038
20
212.92998859883102
0
VERTEX
8
Layer_1
6
CONTINUOUS
62
1
10
60.653158939513958
20
212.95916316055164
0
VERTEX
8
Layer_1
6
CONTINUOUS
62
1
10
61.180400028392164
20
213.02815262839383
0
VERTEX
8
Layer_1
6
CONTINUOUS
62
1
10
61.700966127153727
20
213.13656687697215
0
VERTEX
8
Layer_1
6
CONTINUOUS
62
1
10
62.2119135103829
20
213.28379283951236
0
VERTEX
8
Layer_1
6
CONTINUOUS
62
1
10
62.710352845098384
20
213.46899797465449
0
VERTEX
8
Layer_1
6
CONTINUOUS
62
1
10
63.193465529510128
20
213.6911349743531
0
VERTEX
8
Layer_1
6
CONTINUOUS
62
1
10
63.658519631801731
20
213.94894768625147
0
VERTEX
8
Layer_1
6
CONTINUOUS
62
1
10
64.102885338806573
20
214.24097821704015
0
VERTEX
8
Layer_1
6
CONTINUOUS
62
1
10
64.524049827218093
20
214.56557517663111
0
VERTEX
8
Layer_1
6
CONTINUOUS
62
1
10
64.919631473239235
20
214.92090301652806
0
VERTEX
8
Layer_1
6
CONTINUOUS
62
1
10
65.287393320318017
20
215.30495240958555
0
VERTEX
8
Layer_1
6
CONTINUOUS
62
1
10
65.625255728810643
20
215.7155516124613
0
VERTEX
8
Layer_1
6
CONTINUOUS
62
1
10
65.931308136040727
20
216.15037874650804
0
VERTEX
8
Layer_1
6
CONTINUOUS
62
1
10
66.203819860252665
20
216.60697492765902
0
VERTEX
8
Layer_1
6
CONTINUOUS
62
1
10
66.441249887364776
20
217.08275817105897
0
VERTEX
8
Layer_1
6
CONTINUOUS
62
1
10
66.642255585179271
20
217.57503799181208
0
VERTEX
8
Layer_1
6
CONTINUOUS
62
1
10
66.805700295771715
20
218.0810306192821
0
VERTEX
8
Layer_1
6
CONTINUOUS
62
1
10
66.930659763125817
20
218.59787473890927
0
VERTEX
8
Layer_1
6
CONTINUOUS
62
1
10
67.016427359666636
20
219.12264767252748
0
VERTEX
8
Layer_1
6
CONTINUOUS
62
1
10
67.062518082136378
20
219.65238190568297
0
VERTEX
8
Layer_1
6
CONTINUOUS
62
1
10
67.068671294217239
20
220.18408186849632
0
VERTEX
8
Layer_1
6
CONTINUOUS
62
1
10
67.03485220039174
20
220.71474087517333
0
VERTEX
8
Layer_1
6
CONTINUOUS
62
1
10
67
20
221
0
SEQEND
0
LINE
8
Layer_1
6
CONTINUOUS
62
1
10
53
20
220
11
53
21
240
0
LINE
8
Layer_1
6
CONTINUOUS
62
1
10
67
20
240
11
67
21
220
0
ENDSEC
0
EOF
